<svg xmlns="http://www.w3.org/2000/svg" xmlns:xlink="http://www.w3.org/1999/xlink" width="769" zoomAndPan="magnify" viewBox="-30 0 636.75 149.999998" height="200" preserveAspectRatio="xMidYMid meet" version="1.0"><defs><g/><clipPath id="a4bd0b94cc"><path d="M 96.246094 28.621094 L 167.429688 28.621094 L 167.429688 99.804688 L 96.246094 99.804688 Z M 96.246094 28.621094 " clip-rule="nonzero"/></clipPath><clipPath id="36d5e6ab7e"><path d="M 131.839844 28.621094 C 112.179688 28.621094 96.246094 44.558594 96.246094 64.214844 C 96.246094 83.871094 112.179688 99.804688 131.839844 99.804688 C 151.496094 99.804688 167.429688 83.871094 167.429688 64.214844 C 167.429688 44.558594 151.496094 28.621094 131.839844 28.621094 Z M 131.839844 28.621094 " clip-rule="nonzero"/></clipPath><clipPath id="73c3e89f45"><path d="M 102.882812 33.648438 L 160.886719 33.648438 L 160.886719 88.851562 L 102.882812 88.851562 Z M 102.882812 33.648438 " clip-rule="nonzero"/></clipPath><clipPath id="1ad42f0dc1"><path d="M 131.839844 33.648438 L 138.675781 54.734375 L 160.800781 54.734375 L 142.902344 67.765625 L 149.738281 88.851562 L 131.839844 75.820312 L 113.945312 88.851562 L 120.78125 67.765625 L 102.882812 54.734375 L 125.003906 54.734375 Z M 131.839844 33.648438 " clip-rule="nonzero"/></clipPath></defs><g fill="#000000" fill-opacity="1"><g transform="translate(0.000000000000085228, 92.880579)"><g><path d="M 32.109375 0 L 20.8125 0 L 3.96875 -73.46875 L 12.515625 -73.46875 L 26.328125 -12.71875 L 27.59375 -12.71875 L 44.078125 -73.46875 L 52.0625 -73.46875 L 68.546875 -12.71875 L 69.796875 -12.71875 L 83.671875 -73.46875 L 91.96875 -73.46875 L 75.1875 0 L 63.828125 0 L 48.5 -55.625 L 47.4375 -55.625 Z M 32.109375 0 "/></g></g></g><g fill="#000000" fill-opacity="1"><g transform="translate(95.962787, 92.880579)"><g/></g><g transform="translate(121.189704, 92.880579)"><g/></g><g transform="translate(146.41662, 92.880579)"><g/></g></g><g fill="#000000" fill-opacity="1"><g transform="translate(171.663637, 92.880579)"><g><path d="M 9.65625 0 L 9.65625 -55.4375 L 17.4375 -55.4375 L 17.4375 -46.734375 L 18.5 -46.484375 C 21.070312 -52.785156 25.925781 -55.9375 33.0625 -55.9375 C 36.851562 -55.9375 39.6875 -55.25 41.5625 -53.875 L 39.453125 -46.9375 L 38.4375 -46.734375 C 36.363281 -47.773438 34.085938 -48.296875 31.609375 -48.296875 C 27.191406 -48.296875 23.789062 -46.632812 21.40625 -43.3125 C 19.03125 -40 17.84375 -34.625 17.84375 -27.1875 L 17.84375 0 Z M 9.65625 0 "/></g></g></g><g fill="#000000" fill-opacity="1"><g transform="translate(213.021709, 92.880579)"><g><path d="M 28.75 1.0625 C 24.289062 1.0625 20.359375 0 16.953125 -2.125 C 13.554688 -4.257812 10.894531 -7.46875 8.96875 -11.75 C 7.039062 -16.039062 6.078125 -21.351562 6.078125 -27.6875 C 6.078125 -34.019531 7.082031 -39.335938 9.09375 -43.640625 C 11.101562 -47.953125 13.875 -51.171875 17.40625 -53.296875 C 20.945312 -55.421875 25.046875 -56.484375 29.703125 -56.484375 C 33.390625 -56.484375 36.707031 -55.785156 39.65625 -54.390625 C 42.601562 -53.003906 45.128906 -50.722656 47.234375 -47.546875 L 48.296875 -47.734375 L 48.296875 -77.6875 L 56.484375 -77.6875 L 56.484375 0 L 48.296875 0 L 48.296875 -8.09375 L 47.234375 -8.296875 C 45.429688 -5.546875 42.976562 -3.296875 39.875 -1.546875 C 36.78125 0.191406 33.070312 1.0625 28.75 1.0625 Z M 31.3125 -6.28125 C 36.46875 -6.28125 40.585938 -8.046875 43.671875 -11.578125 C 46.753906 -15.117188 48.296875 -20.488281 48.296875 -27.6875 C 48.296875 -34.925781 46.753906 -40.3125 43.671875 -43.84375 C 40.585938 -47.382812 36.46875 -49.15625 31.3125 -49.15625 C 25.976562 -49.15625 21.867188 -47.425781 18.984375 -43.96875 C 16.109375 -40.519531 14.671875 -35.09375 14.671875 -27.6875 C 14.671875 -13.414062 20.21875 -6.28125 31.3125 -6.28125 Z M 31.3125 -6.28125 "/></g></g><g transform="translate(279.204675, 92.880579)"><g><path d="M 25.28125 1.0625 C 21.789062 1.0625 18.5625 0.601562 15.59375 -0.3125 C 12.632812 -1.238281 10.132812 -2.503906 8.09375 -4.109375 C 6.050781 -5.722656 4.609375 -7.535156 3.765625 -9.546875 L 8.59375 -14.578125 L 9.65625 -14.578125 C 11.457031 -11.828125 13.628906 -9.753906 16.171875 -8.359375 C 18.722656 -6.972656 21.757812 -6.28125 25.28125 -6.28125 C 29.363281 -6.28125 32.46875 -7.078125 34.59375 -8.671875 C 36.726562 -10.265625 37.796875 -12.484375 37.796875 -15.328125 C 37.796875 -17.503906 37.148438 -19.300781 35.859375 -20.71875 C 34.566406 -22.144531 32.476562 -23.210938 29.59375 -23.921875 L 20.25 -26.234375 C 15.257812 -27.441406 11.613281 -29.347656 9.3125 -31.953125 C 7.019531 -34.566406 5.875 -37.800781 5.875 -41.65625 C 5.875 -44.675781 6.644531 -47.300781 8.1875 -49.53125 C 9.726562 -51.757812 11.945312 -53.472656 14.84375 -54.671875 C 17.75 -55.878906 21.191406 -56.484375 25.171875 -56.484375 C 30.265625 -56.484375 34.273438 -55.769531 37.203125 -54.34375 C 40.140625 -52.925781 42.429688 -50.941406 44.078125 -48.390625 L 39.453125 -43.875 L 38.4375 -43.875 C 36.664062 -45.914062 34.734375 -47.390625 32.640625 -48.296875 C 30.546875 -49.203125 28.054688 -49.65625 25.171875 -49.65625 C 21.523438 -49.65625 18.726562 -49 16.78125 -47.6875 C 14.84375 -46.382812 13.875 -44.492188 13.875 -42.015625 C 13.875 -39.765625 14.554688 -37.953125 15.921875 -36.578125 C 17.296875 -35.210938 19.695312 -34.109375 23.125 -33.265625 L 32.3125 -31.0625 C 37.132812 -29.914062 40.617188 -28.019531 42.765625 -25.375 C 44.910156 -22.726562 45.984375 -19.410156 45.984375 -15.421875 C 45.984375 -12.171875 45.210938 -9.304688 43.671875 -6.828125 C 42.128906 -4.347656 39.800781 -2.410156 36.6875 -1.015625 C 33.570312 0.367188 29.769531 1.0625 25.28125 1.0625 Z M 25.28125 1.0625 "/></g></g><g transform="translate(330.462554, 92.880579)"><g><path d="M 31.8125 1.0625 C 26.914062 1.0625 22.523438 -0.0507812 18.640625 -2.28125 C 14.753906 -4.507812 11.6875 -7.789062 9.4375 -12.125 C 7.195312 -16.46875 6.078125 -21.65625 6.078125 -27.6875 C 6.078125 -33.75 7.195312 -38.945312 9.4375 -43.28125 C 11.6875 -47.625 14.753906 -50.910156 18.640625 -53.140625 C 22.523438 -55.367188 26.914062 -56.484375 31.8125 -56.484375 C 37.675781 -56.484375 42.34375 -55.378906 45.8125 -53.171875 C 49.28125 -50.960938 51.785156 -48.015625 53.328125 -44.328125 L 47.734375 -40.296875 L 46.734375 -40.296875 C 45.222656 -43.347656 43.285156 -45.585938 40.921875 -47.015625 C 38.566406 -48.441406 35.53125 -49.15625 31.8125 -49.15625 C 28.394531 -49.15625 25.394531 -48.347656 22.8125 -46.734375 C 20.238281 -45.128906 18.238281 -42.71875 16.8125 -39.5 C 15.382812 -36.28125 14.671875 -32.34375 14.671875 -27.6875 C 14.671875 -23.0625 15.390625 -19.148438 16.828125 -15.953125 C 18.273438 -12.753906 20.28125 -10.34375 22.84375 -8.71875 C 25.40625 -7.09375 28.394531 -6.28125 31.8125 -6.28125 C 35.664062 -6.28125 38.851562 -7.148438 41.375 -8.890625 C 43.90625 -10.640625 45.894531 -13.390625 47.34375 -17.140625 L 48.390625 -17.140625 L 53.765625 -13.96875 C 52.328125 -9.3125 49.753906 -5.640625 46.046875 -2.953125 C 42.347656 -0.273438 37.601562 1.0625 31.8125 1.0625 Z M 31.8125 1.0625 "/></g></g><g transform="translate(387.600011, 92.880579)"><g><path d="M 31.8125 1.0625 C 26.582031 1.0625 22.03125 -0.0390625 18.15625 -2.25 C 14.289062 -4.46875 11.3125 -7.726562 9.21875 -12.03125 C 7.125 -16.34375 6.078125 -21.5625 6.078125 -27.6875 C 6.078125 -33.820312 7.125 -39.050781 9.21875 -43.375 C 11.3125 -47.695312 14.289062 -50.960938 18.15625 -53.171875 C 22.03125 -55.378906 26.582031 -56.484375 31.8125 -56.484375 C 37.039062 -56.484375 41.585938 -55.378906 45.453125 -53.171875 C 49.328125 -50.960938 52.3125 -47.695312 54.40625 -43.375 C 56.5 -39.050781 57.546875 -33.820312 57.546875 -27.6875 C 57.546875 -21.5625 56.5 -16.34375 54.40625 -12.03125 C 52.3125 -7.726562 49.328125 -4.46875 45.453125 -2.25 C 41.585938 -0.0390625 37.039062 1.0625 31.8125 1.0625 Z M 31.8125 -6.28125 C 37.34375 -6.28125 41.570312 -8.019531 44.5 -11.5 C 47.425781 -14.988281 48.890625 -20.382812 48.890625 -27.6875 C 48.890625 -35.03125 47.425781 -40.441406 44.5 -43.921875 C 41.570312 -47.410156 37.34375 -49.15625 31.8125 -49.15625 C 26.28125 -49.15625 22.039062 -47.398438 19.09375 -43.890625 C 16.144531 -40.390625 14.671875 -34.988281 14.671875 -27.6875 C 14.671875 -20.382812 16.144531 -14.988281 19.09375 -11.5 C 22.039062 -8.019531 26.28125 -6.28125 31.8125 -6.28125 Z M 31.8125 -6.28125 "/></g></g><g transform="translate(451.220083, 92.880579)"><g><path d="M 9.65625 22.46875 L 9.65625 -55.4375 L 17.84375 -55.4375 L 17.84375 -47.140625 L 18.890625 -46.9375 C 23.015625 -53.300781 29.0625 -56.484375 37.03125 -56.484375 C 41.65625 -56.484375 45.691406 -55.425781 49.140625 -53.3125 C 52.597656 -51.207031 55.28125 -48 57.1875 -43.6875 C 59.09375 -39.382812 60.046875 -34.050781 60.046875 -27.6875 C 60.046875 -21.351562 59.039062 -16.039062 57.03125 -11.75 C 55.03125 -7.46875 52.253906 -4.257812 48.703125 -2.125 C 45.148438 0 41.0625 1.0625 36.4375 1.0625 C 32.6875 1.0625 29.351562 0.410156 26.4375 -0.890625 C 23.519531 -2.203125 21.003906 -4.351562 18.890625 -7.34375 L 17.84375 -7.140625 L 17.84375 22.46875 Z M 34.625 -6.28125 C 45.851562 -6.28125 51.46875 -13.414062 51.46875 -27.6875 C 51.46875 -42 45.851562 -49.15625 34.625 -49.15625 C 31.34375 -49.15625 28.441406 -48.398438 25.921875 -46.890625 C 23.410156 -45.378906 21.4375 -43.023438 20 -39.828125 C 18.5625 -36.628906 17.84375 -32.582031 17.84375 -27.6875 C 17.84375 -22.832031 18.5625 -18.804688 20 -15.609375 C 21.4375 -12.410156 23.410156 -10.054688 25.921875 -8.546875 C 28.441406 -7.035156 31.34375 -6.28125 34.625 -6.28125 Z M 34.625 -6.28125 "/></g></g><g transform="translate(517.352796, 92.880579)"><g><path d="M 52.8125 -25.828125 L 14.71875 -25.828125 C 14.957031 -19.097656 16.578125 -14.15625 19.578125 -11 C 22.578125 -7.851562 26.6875 -6.28125 31.90625 -6.28125 C 35.863281 -6.28125 39.046875 -6.984375 41.453125 -8.390625 C 43.867188 -9.796875 45.765625 -12.007812 47.140625 -15.03125 L 48.1875 -15.03125 L 53.515625 -11.859375 C 51.910156 -7.835938 49.335938 -4.675781 45.796875 -2.375 C 42.265625 -0.0820312 37.632812 1.0625 31.90625 1.0625 C 26.550781 1.0625 21.945312 0.00390625 18.09375 -2.109375 C 14.238281 -4.222656 11.269531 -7.421875 9.1875 -11.703125 C 7.113281 -15.992188 6.078125 -21.320312 6.078125 -27.6875 C 6.078125 -33.988281 7.175781 -39.300781 9.375 -43.625 C 11.570312 -47.945312 14.570312 -51.171875 18.375 -53.296875 C 22.175781 -55.421875 26.519531 -56.484375 31.40625 -56.484375 C 38.507812 -56.484375 44.054688 -54.476562 48.046875 -50.46875 C 52.035156 -46.46875 54.046875 -40.535156 54.078125 -32.671875 C 54.078125 -29.585938 54.007812 -27.507812 53.875 -26.4375 Z M 45.984375 -32.671875 C 45.847656 -38.566406 44.539062 -42.851562 42.0625 -45.53125 C 39.582031 -48.207031 36.03125 -49.546875 31.40625 -49.546875 C 26.550781 -49.546875 22.738281 -48.195312 19.96875 -45.5 C 17.207031 -42.800781 15.523438 -38.523438 14.921875 -32.671875 Z M 45.984375 -32.671875 "/></g></g></g><g clip-path="url(#a4bd0b94cc)"><g clip-path="url(#36d5e6ab7e)"><path stroke-linecap="butt" transform="matrix(0.749675, 0, 0, 0.749675, 96.24655, 28.62167)" fill="none" stroke-linejoin="miter" d="M 47.478298 -0.00076822 C 21.253392 -0.00076822 -0.000608909 21.258444 -0.000608909 47.478139 C -0.000608909 73.697833 21.253392 94.951835 47.478298 94.951835 C 73.697993 94.951835 94.951994 73.697833 94.951994 47.478139 C 94.951994 21.258444 73.697993 -0.00076822 47.478298 -0.00076822 Z M 47.478298 -0.00076822 " stroke="#000000" stroke-width="24" stroke-opacity="1" stroke-miterlimit="4"/></g></g><path stroke-linecap="round" transform="matrix(0, 0.749675, -0.749675, 0, 136.339105, 95.322867)" fill="none" stroke-linejoin="miter" d="M 5.999194 6.001616 L 56.891038 6.001616 " stroke="#000000" stroke-width="12" stroke-opacity="1" stroke-miterlimit="4"/><g clip-path="url(#73c3e89f45)"><g clip-path="url(#1ad42f0dc1)"><path fill="#000000" d="M 102.882812 33.648438 L 160.886719 33.648438 L 160.886719 88.851562 L 102.882812 88.851562 Z M 102.882812 33.648438 " fill-opacity="1" fill-rule="nonzero"/></g></g></svg>
